# xmcd
#
# Track frame offsets:
#	150
#	16574
#	32910
#	51470
#	70163
#	86842
#	103162
#	117770
#	134972
#	150677
#	166817
#	186962
#
# Disc length: 2900 seconds
#
# Revision: 4
# Processed by: cddbd v1.5.2PL0 Copyright (c) Steve Scherf et al.
# Submitted via: EasyCDDAExtractor 15.3.0.1
#
DISCID=a50b520c
DTITLE=Sherrié Austin - Streets Of Heaven
DYEAR=2003
DGENRE=Country
TTITLE0=Singin' To The Scarecrow
TTITLE1=Small Town Boy
TTITLE2=Ride'Em Cowgirl
TTITLE3=Driving Into The Sun
TTITLE4=Fools Like Us
TTITLE5=Somebody's Somebody
TTITLE6=Love Unafraid
TTITLE7=This Town Is That Small
TTITLE8=Remind Me
TTITLE9=I'm Still Fallin'
TTITLE10=Streets Of Heaven
TTITLE11=Like A Cat
EXTD=
EXTT0=
EXTT1=
EXTT2=
EXTT3=
EXTT4=
EXTT5=
EXTT6=
EXTT7=
EXTT8=
EXTT9=
EXTT10=
EXTT11=
PLAYORDER=
